<?xml version="1.0" encoding="UTF-8"?>
<!-- Generator: Adobe Illustrator 13.0.0, SVG Export Plug-In . SVG Version: 6.00 Build 14948)  -->
<!DOCTYPE svg PUBLIC "-//W3C//DTD SVG 1.1//EN" "http://www.w3.org/Graphics/SVG/1.1/DTD/svg11.dtd">
<svg version="1.1" id="Layer_1" xmlns="http://www.w3.org/2000/svg" xmlns:xlink="http://www.w3.org/1999/xlink" x="0px" y="0px" width="472.129px" height="158.865px" viewBox="0 0 472.129 158.865" enable-background="new 0 0 472.129 158.865" xml:space="preserve">
<g>
	<circle cx="72.838" cy="18.726" r="5.774"/>
	<path d="M105.645,25.195c-7.698-4.666-17.961-4.433-23.094-2.798l-2.332,12.361h7.698l-2.1,11.2h-7.698l-3.267,17.027   c-1.399,6.998,2.333,5.6,5.133,5.6l-1.167,6.531c-20.527,9.099-24.493-4.899-23.328-11.197l3.266-17.961H48.493l2.098-11.2h10.265   l2.566-13.295c-9.097-3.032-8.398-3.499-8.398-10.732V0H27.731v42.456H0.205c-1.166,4.433,2.8,11.433,7.931,12.831   c5.133,1.4,8.632,12.364,10.498,14.695c1.866,2.334,6.531,5.366,11.197,4.899c5.133-6.531,5.832-7.464,8.165-6.531   c1.399,0.233,4.199,0.934,6.298,0.7c13.296,35.458,30.325,39.891,40.589,34.758c-14.695-25.428,18.196-35.225,25.194-37.792   c2.1-6.764,2.333-15.629,1.632-20.759C103.779,41.291,104.946,31.492,105.645,25.195z"/>
	<polygon points="58.82,64.349 71.184,64.349 78.415,26.792 65.819,26.792  "/>
	<path d="M299.732,155.942c-1.905-0.138-4.694-1.702-4.694-4.899v-28.294c0-3.198,2.789-4.761,4.694-4.899   c0.681,0,0.681-0.815-0.069-0.815H288.1l-16.052,26.663l-16.462-26.663h-12.243c-0.75,0-0.75,0.815-0.069,0.815   c1.905,0.138,4.694,1.702,4.694,4.899v28.294c0,3.198-2.789,4.762-4.694,4.899c-0.681,0-0.681,0.816,0.069,0.816h14.691   c0.748,0,0.748-0.816,0.069-0.816c-1.906-0.138-4.694-1.702-4.694-4.899v-20.27l15.509,25.169c0.68,0.951,1.088,1.224,1.905,0   c0-0.138,14.964-24.624,14.964-24.624v19.725c0,3.198-2.789,4.762-4.693,4.899c-0.681,0-0.681,0.816,0.067,0.816h18.501   C300.412,156.758,300.412,155.942,299.732,155.942z"/>
	<path d="M240.356,117.033h-13.604c-0.748,0-0.748,0.815-0.069,0.815c1.905,0.138,4.694,1.702,4.694,4.899v20.405   c-0.137,6.801-6.532,9.658-11.972,9.523c-5.442-0.138-10.883-0.954-10.883-9.523v-20.405c0-3.198,2.789-4.761,4.693-4.899   c0.681,0,0.681-0.815-0.068-0.815h-16.87c-0.748,0-0.748,0.815-0.067,0.815c1.904,0.138,4.693,1.702,4.693,4.899v20.405   c0,9.385,6.802,13.604,18.502,13.604c8.162,0,16.325-4.762,16.325-13.604v-20.405c0-3.198,2.787-4.761,4.693-4.899   C241.103,117.849,241.103,117.033,240.356,117.033z"/>
	<path d="M200.487,152.952c-1.768,1.088-6.87-0.138-8.229-2.45c-2.177-3.673-8.639-9.385-11.224-10.136   c-1.361-0.203-1.7-1.291,0.476-1.291c1.91,0,12.108-0.135,12.108-10.339c0-10.204-9.523-11.7-14.42-11.7h-27.753   c-0.748,0-0.748,0.815-0.067,0.815c1.904,0.138,4.693,1.702,4.693,4.899v28.297c0,3.195-2.789,4.759-4.693,4.896   c-0.681,0-0.681,0.815,0.067,0.815h17.958c0.748,0,0.748-0.815,0.067-0.815c-1.904-0.138-4.693-1.702-4.693-4.556v-10.682   c0-0.951,0.408-1.631,1.36-1.631c0,0,4.018-0.034,4.15,0c2.379,0.613,3.741,0.815,8.637,8.57   c4.898,7.754,12.925,15.646,22.176,5.85C201.304,153.222,201.167,152.679,200.487,152.952z M177.972,134.451h-11.428   c-1.088,0-1.768-0.545-1.768-1.769v-8.775c0-1.156,0.543-2.245,1.768-2.245h10.068c5.577,0,7.073,3.808,7.073,6.258   C183.686,130.368,182.597,134.451,177.972,134.451z"/>
	<path d="M68.893,117.039H56.104c-0.748,0-0.748,0.816-0.067,0.816c1.904,0.135,4.693,1.702,4.693,4.896v20.543l-26.12-26.255   H21.278c-0.748,0-0.748,0.816-0.069,0.816c1.906,0.135,6.19,4.216,9.048,7.619v25.575c0,3.198-2.789,4.762-4.694,4.896   c-0.679,0-0.679,0.818,0.069,0.818h13.603c0.75,0,0.75-0.818,0.069-0.818c-1.905-0.135-4.694-1.699-4.694-4.896v-21.494   l28.57,28.84c0.952,0.954,1.087,0.273,1.087-0.408v-35.236c0-3.195,2.79-4.762,4.694-4.896   C69.641,117.854,69.641,117.039,68.893,117.039z"/>
	<path d="M20.634,155.905c-1.904-0.135-4.693-1.699-4.693-4.896v-42.447c0-3.195,2.789-4.761,4.693-4.896   c0.681,0,0.681-0.815-0.067-0.815H2.608c-0.748,0-0.748,0.815-0.067,0.815c1.904,0.135,4.693,1.702,4.693,4.896v42.447   c0,3.198-2.789,4.762-4.693,4.896c-0.681,0-0.681,0.816,0.067,0.816h17.958C21.314,156.721,21.314,155.905,20.634,155.905z"/>
	<path d="M152.989,126.284l-3.81-9.25h-36.322l-3.403,8.266l-2.332-6.967c-0.229-0.475-0.996-0.954-1.473,0.203   c-0.475,1.156-1.904,2.312-3.6,1.575c-1.976-0.756-6.262-2.275-12.945-2.275c-9.099,0-15.173,4.101-15.173,12.105   c0,15.118,29.747,7.231,29.439,17.905c-0.163,5.639-5.134,6.039-10.307,6.039c-7.11,0-16.935-5.42-21.062-11.228   c-0.929-0.773-1.382-0.247-1.098,0.827l4.046,12.926c0.294,0.47,0.481,1.35,1.188,1.361c0.739,0.011,1.175-2.247,2.645-2.247   c1.821,0,9.719,2.264,15.89,2.264c6.758,0,16.501-3.96,16.501-11.658c0-10.049-6.136-11.542-19.461-13.525   c-4.217-0.63-10.72-0.695-10.72-6.337c0-3.938,6.231-4.978,9.581-4.978c10.792,0,19.076,9.984,19.957,9.984   c0.767,0,0.706-0.883,0.295-1.878l-0.89-2.655c1.353-1.668,3.154-5.08,8.636-5.08h4.353c1.361,0,2.45,1.224,2.45,2.72v26.663   c0,3.198-2.789,4.762-4.694,4.899c-0.679,0-0.679,0.816,0.069,0.816h19.045c0.748,0,0.748-0.816,0.067-0.816   c-1.904-0.138-4.692-1.702-4.692-4.899v-26.663c0-1.496,1.088-2.72,2.448-2.72h5.85c5.577,0,7.346,3.536,8.706,5.169   C152.579,127.237,153.26,127.237,152.989,126.284z"/>
	<path d="M433.823,126.284l-3.81-9.25h-36.323l-3.81,9.25c-0.271,0.954,0.408,0.954,0.816,0.545c1.361-1.634,3.13-5.169,8.708-5.169   h4.354c1.36,0,2.449,1.224,2.449,2.72v26.663c0,3.198-2.789,4.762-4.694,4.899c-0.679,0-0.679,0.816,0.069,0.816h19.045   c0.748,0,0.748-0.816,0.069-0.816c-1.906-0.138-4.694-1.702-4.694-4.899v-26.663c0-1.496,1.088-2.72,2.448-2.72h5.85   c5.578,0,7.347,3.536,8.707,5.169C433.414,127.237,434.094,127.237,433.823,126.284z"/>
	<path d="M303.938,117.849c1.906,0.138,4.694,1.702,4.694,4.899v28.294c0,3.198-2.789,4.762-4.694,4.899   c-0.68,0-0.68,0.816,0.068,0.816h36.188l3.81-9.25c0.271-0.954-0.408-0.954-0.817-0.546c-1.36,1.634-3.129,5.169-8.706,5.169   h-13.604c-1.36,0-2.448-1.223-2.448-2.72v-9.523c0-1.224,0.681-1.77,2.041-1.77h5.85c3.4,0,4.762,1.429,4.896,3.333   c0,0.681,0.817,0.681,0.817-0.067v-11.155c0-0.748-0.817-0.748-0.817-0.067c-0.135,1.904-1.496,3.333-4.896,3.333h-5.85   c-1.36,0-2.041-0.546-2.041-1.769v-7.347c0-1.496,1.088-2.72,2.448-2.72h12.381c5.577,0,7.345,3.536,8.706,5.169   c0.408,0.408,1.087,0.408,0.816-0.545l-3.81-9.25h-34.963C303.258,117.033,303.258,117.849,303.938,117.849z"/>
	<path d="M177.877,64.253c1.905,0.135,4.694,1.702,4.694,4.896v28.297c0,3.198-2.789,4.761-4.694,4.899   c-0.681,0-0.681,0.815,0.069,0.815h36.186l3.81-9.25c0.271-0.954-0.408-0.954-0.815-0.545c-1.361,1.634-3.13,5.169-8.708,5.169   h-13.604c-1.36,0-2.448-1.224-2.448-2.72v-9.523c0-1.224,0.681-1.769,2.041-1.769h5.85c3.4,0,4.762,1.429,4.898,3.333   c0,0.68,0.816,0.68,0.816-0.068V76.634c0-0.749-0.816-0.749-0.816-0.068c-0.136,1.904-1.498,3.333-4.898,3.333h-5.85   c-1.36,0-2.041-0.545-2.041-1.769v-7.346c0-1.497,1.088-2.723,2.448-2.723h12.381c5.577,0,7.345,3.538,8.706,5.169   c0.408,0.411,1.089,0.411,0.816-0.543l-3.81-9.25h-34.961C177.196,63.437,177.196,64.253,177.877,64.253z"/>
	<path d="M342.515,117.854c1.906,0.135,6.19,4.216,9.047,7.619v25.575c0,3.198-2.789,4.762-4.693,4.896   c-0.681,0-0.681,0.818,0.067,0.818h13.604c0.748,0,0.748-0.818,0.067-0.818c-1.904-0.135-4.693-1.699-4.693-4.896v-21.494   l28.568,28.84c0.952,0.954,1.089,0.273,1.089-0.408v-35.236c0-3.195,2.789-4.762,4.694-4.896c0.679,0,0.679-0.816-0.069-0.816   H377.41c-0.748,0-0.748,0.816-0.069,0.816c1.905,0.135,4.694,1.702,4.694,4.896v20.543l-26.12-26.255h-13.332   C341.836,117.039,341.836,117.854,342.515,117.854z"/>
	<path d="M317.447,78.048c-4.219-0.627-10.721-0.692-10.721-6.334c0-3.938,6.231-4.981,9.581-4.981   c10.792,0,19.076,9.987,19.956,9.987c0.767,0,0.708-0.883,0.295-1.881l-3.703-11.062c-0.229-0.472-0.996-0.953-1.471,0.203   c-0.477,1.156-1.905,2.315-3.601,1.578c-1.976-0.756-6.262-2.278-12.945-2.278c-9.099,0-15.172,4.101-15.172,12.105   c0,15.118,29.746,7.234,29.438,17.908c-0.163,5.636-5.134,6.039-10.305,6.039c-7.111,0-16.936-5.42-21.063-11.228   c-0.93-0.773-1.382-0.247-1.099,0.827l4.047,12.926c0.069,0.11,0.132,0.245,0.197,0.383c-1.16-0.22-2.59-0.773-3.049-1.859   l-16.229-36.943h-6.122L258.11,100.06l-13.085-19.143l10.27-12.718c2.313-3.538,4.831-3.811,6.735-3.946   c0.681,0,0.681-0.816-0.067-0.816h-15.781c-0.748,0-0.748,0.816-0.067,0.816c1.904,0.135,3.604,1.496,2.379,3.673l-6.666,8.3   l-5.713-8.3c-1.225-2.177,0.477-3.538,2.38-3.673c0.681,0,0.681-0.816-0.067-0.816h-19.182c-0.75,0-0.75,0.816-0.069,0.816   c1.906,0.135,4.287,0.408,6.598,3.946l10.408,15.168l-13.441,17.013c-0.986,1.241-2.378,1.879-3.565,1.966   c-0.681,0-0.681,0.815,0.069,0.815h14.147c0.75,0,0.75-0.815,0.069-0.815c-1.187-0.087-3.877-1.907-2.477-3.735l8.394-10.55   l7.169,10.412c1.402,1.831-1.834,3.786-3.02,3.873c-0.681,0-0.681,0.815,0.067,0.815h23.313c0.748,0,0.748-0.815,0.069-0.815   c-1.187-0.087-3.877-1.907-2.477-3.735l2.952-6.809c0.273-0.613,0.817-1.156,1.633-1.156h13.877c0.68,0,1.36,0.542,1.564,1.088   l2.611,6.469c0.995,2.441-1.833,4.056-3.019,4.143c-0.681,0-0.681,0.815,0.067,0.815h17.414c0.001,0,0.001,0,0.003,0   c0.082,0.031,0.168,0.053,0.267,0.053c0.74,0.014,1.176-2.247,2.645-2.247c1.821,0,9.72,2.264,15.89,2.264   c6.759,0,16.501-3.96,16.501-11.658C336.906,81.525,330.771,80.034,317.447,78.048z M281.398,86.019h-10.271   c-0.34,0-0.952-0.34-0.681-0.883l5.375-12.041c0.34-0.748,1.156-0.681,1.429,0l4.625,11.835   C282.146,85.679,281.943,86.086,281.398,86.019z"/>
	<path d="M135.178,59.182c1.632-1.904,6.666-6.396,10.883-6.396h7.347c1.496,0,2.584,1.361,2.584,2.722v41.899   c0,3.198-2.789,4.762-4.694,4.899c-0.681,0-0.681,0.815,0.067,0.815h17.958c0.748,0,0.748-0.815,0.067-0.815   c-1.904-0.138-4.692-1.702-4.692-4.899V55.508c0-1.361,1.088-2.722,2.584-2.722h7.347c4.217,0,9.25,4.492,10.883,6.396   c0.544,0.681,1.633,0.543,1.089-0.545l-5.579-10.612h-41.355l-5.578,10.612C133.545,59.725,134.634,59.862,135.178,59.182z"/>
	<path d="M452.669,132.604c-4.219-0.63-10.722-0.695-10.722-6.337c0-3.938,6.233-4.978,9.583-4.978   c10.791,0,19.075,9.984,19.957,9.984c0.765,0,0.706-0.883,0.294-1.878l-3.703-11.062c-0.229-0.475-0.996-0.954-1.473,0.203   c-0.475,1.156-1.904,2.312-3.6,1.575c-1.976-0.756-6.262-2.275-12.945-2.275c-9.099,0-15.174,4.101-15.174,12.105   c0,15.118,29.747,7.231,29.439,17.905c-0.163,5.639-5.135,6.039-10.306,6.039c-7.111,0-16.936-5.42-21.063-11.228   c-0.93-0.773-1.382-0.247-1.097,0.827l4.045,12.926c0.293,0.47,0.48,1.35,1.187,1.361c0.74,0.011,1.176-2.247,2.646-2.247   c1.821,0,9.72,2.264,15.889,2.264c6.759,0,16.501-3.96,16.501-11.658C472.129,136.08,465.993,134.586,452.669,132.604z"/>
</g>
</svg>